<?xml version="1.0" standalone="no"?>
<!DOCTYPE svg PUBLIC "-//W3C//DTD SVG 20010904//EN"
 "http://www.w3.org/TR/2001/REC-SVG-20010904/DTD/svg10.dtd">
<svg version="1.0" xmlns="http://www.w3.org/2000/svg"
 width="932.000000pt" height="932.000000pt" viewBox="0 0 932.000000 932.000000"
 preserveAspectRatio="xMidYMid meet">
<metadata>
Created by potrace 1.11, written by Peter Selinger 2001-2013
</metadata>
<g transform="translate(0.000000,932.000000) scale(0.100000,-0.100000)"
fill="#000000" stroke="none">
<path d="M0 4660 l0 -4660 4660 0 4660 0 0 4660 0 4660 -4660 0 -4660 0 0
-4660z m2263 3983 c15 -8 37 -28 47 -46 20 -31 20 -63 20 -1658 l0 -1625 58
-18 c226 -71 393 -240 464 -466 19 -62 23 -96 22 -200 0 -110 -3 -135 -28
-205 -76 -223 -238 -381 -458 -451 l-58 -18 0 -580 c0 -559 -1 -582 -20 -613
-51 -85 -189 -85 -240 0 -19 31 -20 54 -20 610 l0 577 -22 10 c-13 5 -51 20
-86 33 -96 38 -169 85 -241 158 -79 79 -132 166 -168 274 -23 70 -27 96 -27
210 0 114 4 140 27 210 70 210 217 361 431 440 l81 31 -4 1594 c-2 1179 0
1606 8 1637 28 104 119 144 214 96z m2542 -2 c16 -9 38 -32 50 -51 19 -34 20
-50 20 -610 l0 -574 70 -26 c148 -56 252 -129 331 -233 58 -77 86 -132 116
-227 19 -63 23 -95 22 -200 0 -107 -4 -136 -27 -205 -67 -202 -211 -355 -409
-432 -35 -13 -73 -28 -85 -33 l-23 -10 0 -1622 c0 -1592 0 -1624 -20 -1655
-51 -85 -189 -85 -240 0 -20 31 -20 63 -20 1655 l0 1622 -22 10 c-13 5 -51 20
-86 33 -96 38 -169 85 -241 158 -79 80 -132 166 -168 274 -23 69 -27 98 -27
205 -1 105 3 137 22 200 72 228 225 384 457 464 l60 21 0 575 c0 520 2 578 17
606 21 39 39 53 85 69 42 15 73 11 118 -14z m2540 0 c16 -9 38 -32 50 -51 20
-35 20 -47 20 -1134 l0 -1098 55 -17 c105 -33 201 -91 281 -171 132 -131 197
-276 206 -455 6 -131 -13 -222 -73 -345 -82 -164 -239 -298 -414 -350 l-55
-16 -5 -1110 c-4 -890 -8 -1114 -18 -1132 -46 -81 -198 -81 -244 0 -10 18 -14
242 -18 1132 l-5 1108 -65 22 c-114 39 -190 86 -276 171 -213 212 -262 518
-127 795 80 164 236 296 413 351 l55 17 5 1108 c4 834 8 1114 17 1130 17 29
37 44 80 59 42 15 73 11 118 -14z m-6405 -7317 c56 -32 80 -77 80 -146 0 -33
-7 -72 -15 -88 -18 -35 -63 -68 -104 -76 -17 -4 -31 -8 -31 -10 0 -15 150
-209 167 -217 44 -20 22 -27 -87 -27 -107 0 -122 4 -99 27 8 8 -7 38 -57 112
l-69 101 -77 0 -78 0 0 -93 c0 -66 4 -99 15 -113 8 -10 15 -22 15 -26 0 -5
-43 -8 -95 -8 -87 0 -118 9 -80 24 13 5 15 44 15 271 0 227 -2 266 -15 271 -8
4 -15 11 -15 16 0 6 92 8 248 6 228 -3 250 -5 282 -24z m690 -124 c0 -64 -9
-86 -25 -60 -4 6 -67 10 -156 10 l-149 0 0 -50 0 -50 89 0 c66 0 93 4 105 15
8 8 17 15 20 15 3 0 6 -31 6 -70 0 -63 -11 -91 -22 -57 -3 8 -35 13 -101 15
l-97 4 0 -61 0 -61 149 0 c120 0 153 3 165 15 8 8 17 15 20 15 3 0 6 -34 6
-77 0 -73 -1 -75 -18 -60 -16 15 -48 17 -245 17 -125 0 -227 3 -227 8 0 4 7
16 15 26 22 29 22 398 0 420 -8 8 -15 17 -15 20 0 3 96 6 213 6 172 0 217 3
233 15 10 8 22 15 27 15 4 0 7 -31 7 -70z m1240 0 c0 -64 -9 -86 -25 -60 -4 6
-69 10 -161 10 l-155 0 3 -47 3 -48 91 -3 c72 -2 95 1 107 13 9 8 18 15 21 15
3 0 6 -31 6 -70 0 -38 -2 -70 -5 -70 -3 0 -16 7 -29 15 -18 12 -45 15 -107 13
l-84 -3 0 -55 0 -55 152 -3 c125 -2 154 0 166 13 9 8 18 15 21 15 3 0 6 -34 6
-77 0 -73 -1 -75 -18 -60 -16 15 -48 17 -245 17 -125 0 -227 2 -227 5 0 3 7
16 16 30 13 20 15 55 12 221 -2 147 -6 198 -15 202 -7 2 -13 8 -13 13 0 5 91
9 213 9 172 0 217 3 233 15 10 8 22 15 27 15 4 0 7 -31 7 -70z m794 54 c20
-13 57 -15 227 -12 151 2 203 6 207 16 11 33 22 5 22 -58 0 -40 -4 -70 -10
-70 -5 0 -10 5 -10 10 0 6 -33 10 -80 10 l-80 0 0 -179 c0 -109 4 -182 10
-186 27 -17 2 -25 -75 -25 -84 0 -99 6 -70 30 12 10 15 44 15 186 l0 174 -79
0 c-44 0 -83 -4 -86 -10 -16 -26 -25 -4 -25 60 0 39 2 70 5 70 3 0 16 -7 29
-16z m2630 0 c20 -13 57 -15 227 -12 151 2 203 6 207 16 11 33 22 5 22 -58 0
-64 -9 -86 -25 -60 -3 6 -40 10 -81 10 l-74 0 0 -179 c0 -109 4 -182 10 -186
27 -17 2 -25 -75 -25 -47 0 -85 3 -85 8 0 4 7 16 15 26 12 16 15 56 15 188 l0
168 -79 0 c-44 0 -83 -4 -86 -10 -16 -26 -25 -4 -25 60 0 39 2 70 5 70 3 0 16
-7 29 -16z m2190 0 c20 -13 57 -15 227 -12 151 2 203 6 207 16 11 33 22 5 22
-58 0 -64 -9 -86 -25 -60 -3 6 -40 10 -81 10 l-74 0 0 -179 c0 -109 4 -182 10
-186 27 -17 2 -25 -75 -25 -47 0 -85 3 -85 8 0 4 7 16 15 26 12 16 15 56 15
188 l0 168 -79 0 c-44 0 -83 -4 -86 -10 -16 -26 -25 -4 -25 60 0 39 2 70 5 70
3 0 16 -7 29 -16z m-6304 -36 c36 -17 74 -32 85 -33 11 -1 19 -7 18 -13 -3
-15 -65 -102 -73 -102 -3 0 -10 10 -15 23 -13 28 -73 56 -136 64 -63 7 -128
-17 -169 -63 -25 -29 -30 -43 -30 -87 0 -67 25 -108 82 -136 85 -41 236 -13
259 47 10 25 10 25 49 -29 37 -52 42 -72 17 -67 -7 1 -43 -13 -82 -32 -65 -32
-77 -35 -165 -34 -106 0 -144 12 -204 64 -159 140 -76 400 137 429 84 12 156
2 227 -31z m3267 17 c63 -20 109 -60 139 -121 23 -47 26 -63 22 -128 -3 -64
-8 -81 -33 -118 -109 -154 -381 -154 -490 0 -25 37 -30 54 -33 118 -4 65 -1
81 23 129 58 120 215 170 372 120z m623 -7 c30 -11 66 -21 80 -23 14 -2 26 -4
28 -4 3 -1 -48 -103 -55 -111 -3 -3 -10 2 -16 11 -37 50 -193 77 -255 45 -36
-18 -42 -50 -14 -65 9 -5 66 -14 126 -20 124 -13 171 -31 203 -80 48 -72 18
-156 -72 -201 -44 -22 -62 -25 -150 -24 -78 1 -113 6 -156 23 -33 12 -64 18
-74 14 -14 -5 -17 -3 -13 8 4 8 16 38 28 67 l23 52 22 -24 c29 -31 92 -49 176
-50 73 0 119 20 119 54 0 29 -24 37 -144 49 -126 13 -170 31 -198 82 -24 42
-19 109 9 148 58 77 197 97 333 49z m2206 -4 c34 -14 69 -22 78 -18 9 3 16 3
16 0 0 -7 -49 -108 -56 -115 -2 -2 -15 7 -29 21 -64 65 -275 63 -275 -2 0 -29
24 -37 144 -49 63 -6 125 -18 145 -28 46 -23 81 -76 81 -123 0 -124 -177 -192
-360 -140 -41 12 -85 22 -97 23 -28 2 -28 18 1 82 21 47 23 49 34 28 27 -49
219 -77 276 -40 30 20 34 52 9 66 -10 5 -67 14 -127 20 -67 7 -124 18 -145 29
-38 20 -71 72 -71 115 0 139 188 204 376 131z m-5116 1 c-11 -13 8 -35 121
-144 l134 -129 3 120 c2 96 -1 125 -13 144 l-15 24 80 0 c47 0 80 -4 80 -10 0
-5 -4 -10 -10 -10 -6 0 -10 -78 -10 -214 0 -133 4 -217 10 -221 27 -17 2 -25
-75 -25 -84 0 -85 0 -80 23 5 18 -18 45 -130 157 l-135 135 0 -142 c0 -116 3
-142 15 -147 8 -3 15 -10 15 -16 0 -6 -33 -10 -85 -10 -78 0 -107 10 -70 24
13 4 15 38 15 212 0 179 -2 210 -17 226 -15 17 -12 18 82 18 86 0 96 -2 85
-15z m1738 -4 c21 -11 44 -32 52 -47 22 -41 19 -117 -6 -151 -36 -49 -67 -58
-211 -61 l-133 -4 0 -84 c0 -66 3 -86 15 -90 37 -15 8 -24 -75 -24 -83 0 -112
9 -75 24 13 4 15 38 15 212 0 179 -2 210 -17 226 -16 17 -9 18 191 18 184 0
211 -2 244 -19z m2349 1 c-15 -16 -17 -45 -17 -195 l0 -177 134 0 c106 0 138
3 150 15 8 8 17 15 20 15 3 0 6 -34 6 -77 0 -73 -1 -75 -18 -60 -16 15 -47 17
-230 17 -117 0 -212 4 -212 9 0 5 7 14 15 21 12 10 15 47 15 213 0 172 -2 203
-17 219 -15 17 -13 18 77 18 90 0 92 -1 77 -18z m543 8 c0 -5 -4 -10 -10 -10
-6 0 -10 -78 -10 -214 0 -133 4 -217 10 -221 27 -17 2 -25 -75 -25 -47 0 -85
3 -85 8 0 4 7 16 15 26 22 29 22 398 0 420 -8 8 -15 17 -15 20 0 3 38 6 85 6
50 0 85 -4 85 -10z"/>
<path d="M2110 5030 c-120 -25 -229 -113 -283 -228 -29 -61 -32 -75 -32 -167
0 -92 3 -106 32 -167 58 -123 167 -206 301 -229 170 -30 348 65 425 228 29 62
32 76 32 168 0 88 -3 107 -27 157 -36 77 -70 121 -130 164 -90 66 -215 95
-318 74z"/>
<path d="M4642 7115 c-120 -26 -221 -108 -275 -223 -29 -61 -32 -75 -32 -167
0 -92 3 -106 32 -168 146 -309 580 -309 726 0 29 62 32 76 32 168 0 92 -3 106
-32 167 -55 117 -155 197 -279 223 -82 17 -91 17 -172 0z"/>
<path d="M7148 6061 c-72 -23 -113 -49 -164 -103 -52 -55 -78 -99 -98 -167
-43 -148 2 -302 120 -410 79 -72 144 -95 269 -96 92 0 105 3 166 33 85 41 168
128 200 209 19 47 23 77 23 158 0 86 -4 108 -26 157 -31 67 -104 149 -165 185
-92 53 -221 67 -325 34z"/>
<path d="M570 1176 l0 -76 134 0 c120 0 136 2 160 21 33 26 36 77 5 105 -18
16 -40 19 -160 22 l-139 4 0 -76z"/>
<path d="M5254 1140 c-100 -50 -113 -197 -23 -261 44 -31 131 -37 178 -12 50
26 74 64 78 125 5 69 -19 114 -77 145 -53 28 -103 29 -156 3z"/>
<path d="M4600 1100 l0 -50 105 0 c92 0 108 3 125 20 24 24 24 29 4 58 -14 20
-23 22 -125 22 l-109 0 0 -50z"/>
</g>
</svg>
